<?xml version="1.0" standalone="no"?>
<!DOCTYPE svg PUBLIC "-//W3C//DTD SVG 20010904//EN"
 "http://www.w3.org/TR/2001/REC-SVG-20010904/DTD/svg10.dtd">
<svg version="1.0" xmlns="http://www.w3.org/2000/svg"
 width="516.000000pt" height="516.000000pt" viewBox="0 0 516.000000 516.000000"
 preserveAspectRatio="xMidYMid meet">

<g transform="translate(0.000000,516.000000) scale(0.100000,-0.100000)"
fill="#000000" stroke="none">
<path d="M2294 3735 c-21 -51 -18 -62 24 -89 47 -30 120 -111 128 -143 5 -17
-1 -30 -24 -51 -37 -35 -92 -120 -92 -143 0 -19 67 -79 87 -79 7 0 13 9 13 20
0 49 53 121 110 150 127 65 273 -2 310 -142 l11 -38 44 37 c25 20 45 41 45 45
0 24 -48 104 -83 138 -31 31 -38 44 -33 63 8 32 80 113 128 143 38 24 52 64
28 79 -5 3 -10 15 -10 26 0 24 -11 24 -61 -1 -58 -30 -111 -82 -159 -154 l-41
-64 -79 0 -79 0 -45 68 c-45 68 -104 124 -163 154 -42 21 -42 21 -59 -19z"/>
<path d="M1360 3506 c-90 -17 -131 -37 -189 -91 -78 -73 -95 -118 -96 -250 0
-87 5 -125 23 -185 98 -315 397 -621 752 -767 79 -33 193 -72 273 -93 26 -7
47 -17 47 -21 0 -5 -13 -49 -29 -97 -46 -139 -56 -190 -56 -307 0 -138 16
-194 84 -289 43 -61 132 -119 226 -149 61 -19 92 -22 240 -22 135 0 182 4 230
18 196 59 293 165 326 355 10 58 10 89 0 157 -15 101 -41 200 -69 271 -11 28
-17 55 -14 60 4 5 32 16 62 23 265 63 525 201 711 378 154 147 257 300 315
468 23 67 27 97 28 190 1 101 -1 115 -27 166 -34 69 -100 132 -175 167 -48 22
-75 27 -166 30 -158 6 -258 -19 -441 -110 -183 -91 -384 -236 -575 -416 l-85
-80 34 -36 c19 -20 40 -36 46 -36 6 0 29 19 50 41 107 112 367 314 500 389
141 80 254 123 376 141 142 22 258 -17 321 -109 27 -39 33 -58 36 -115 8 -127
-49 -284 -155 -435 -64 -91 -201 -225 -300 -295 -78 -55 -287 -167 -312 -167
-6 0 -19 -5 -29 -10 -26 -15 -255 -78 -267 -74 -5 2 -21 26 -34 52 -75 145
-287 434 -418 567 -308 315 -658 561 -923 648 -67 22 -104 29 -220 42 -19 2
-64 -2 -100 -9z m284 -137 c175 -58 372 -177 593 -358 118 -96 299 -265 313
-292 7 -13 -3 -33 -48 -90 -81 -102 -183 -254 -233 -344 l-42 -77 -36 7 c-81
15 -310 98 -390 141 -343 185 -566 456 -622 755 -15 80 -2 137 43 200 46 64
111 89 232 89 83 0 112 -5 190 -31z m1046 -816 c73 -98 163 -230 197 -292 43
-76 40 -80 -62 -82 -38 -1 -101 -4 -139 -8 -64 -5 -71 -8 -87 -36 -9 -16 -20
-41 -24 -54 l-7 -24 210 5 210 6 26 -67 c42 -108 58 -180 63 -286 4 -87 2
-108 -17 -158 -40 -107 -109 -162 -245 -197 -137 -35 -344 -21 -447 30 -103
52 -159 135 -166 249 l-5 74 25 -6 c88 -22 263 -37 440 -37 l199 0 -3 58 -3
57 -235 6 c-236 5 -395 23 -403 44 -8 20 61 214 114 318 89 176 276 447 309
447 8 -1 31 -22 50 -47z"/>
</g>
</svg>
